<?xml version="1.0" encoding="UTF-8"?>
<svg width="15px" height="15px" viewBox="0 0 15 15" version="1.1" xmlns="http://www.w3.org/2000/svg" xmlns:xlink="http://www.w3.org/1999/xlink">
    <title>Close@1.5x</title>
    <g id="Page-1" stroke="none" stroke-width="1" fill="none" fill-rule="evenodd">
        <g id="iPhone-11-Pro" transform="translate(-335.000000, -127.000000)" fill="#FFFFFF" fill-rule="nonzero">
            <path d="M349.808479,141.804929 C350.059,141.554468 350.059,141.140243 349.808479,140.889782 L343.420184,134.503019 L349.808479,128.116256 C350.059,127.865794 350.068635,127.441937 349.808479,127.191475 C349.548322,126.941014 349.133998,126.941014 348.883477,127.191475 L342.504818,133.578239 L336.116523,127.191475 C335.866002,126.941014 335.442043,126.931381 335.191521,127.191475 C334.941,127.45157 334.941,127.865794 335.191521,128.116256 L341.579816,134.503019 L335.191521,140.889782 C334.941,141.140243 334.931365,141.554468 335.191521,141.804929 C335.451678,142.065024 335.866002,142.065024 336.116523,141.804929 L342.504818,135.427799 L348.883477,141.804929 C349.133998,142.065024 349.557957,142.065024 349.808479,141.804929 Z" id="Close"></path>
        </g>
    </g>
</svg>