<?xml version="1.0" encoding="UTF-8"?>
<svg width="17px" height="15px" viewBox="0 0 17 15" version="1.1" xmlns="http://www.w3.org/2000/svg" xmlns:xlink="http://www.w3.org/1999/xlink">
    <title>Menu@1.5x</title>
    <g id="Page-1" stroke="none" stroke-width="1" fill="none" fill-rule="evenodd">
        <g id="iPhone-11-Pro-Copy-2" transform="translate(-333.000000, -127.000000)" fill="#FFFFFF">
            <g id="Menu" transform="translate(333.000000, 127.000000)">
                <path d="M0.5,14 L16.5,14 C16.7761424,14 17,14.2238576 17,14.5 C17,14.7761424 16.7761424,15 16.5,15 L0.5,15 C0.223857625,15 3.38176876e-17,14.7761424 0,14.5 C-3.38176876e-17,14.2238576 0.223857625,14 0.5,14 Z" id="Rectangle-Copy"></path>
                <path d="M0.5,7 L16.5,7 C16.7761424,7 17,7.22385763 17,7.5 C17,7.77614237 16.7761424,8 16.5,8 L0.5,8 C0.223857625,8 3.38176876e-17,7.77614237 0,7.5 C-3.38176876e-17,7.22385763 0.223857625,7 0.5,7 Z" id="Rectangle-Copy-2"></path>
                <path d="M0.5,0 L16.5,0 C16.7761424,-5.07265313e-17 17,0.223857625 17,0.5 C17,0.776142375 16.7761424,1 16.5,1 L0.5,1 C0.223857625,1 3.38176876e-17,0.776142375 0,0.5 C-3.38176876e-17,0.223857625 0.223857625,5.07265313e-17 0.5,0 Z" id="Rectangle-Copy-5"></path>
            </g>
        </g>
    </g>
</svg>