<?xml version="1.0" encoding="UTF-8"?>
<svg width="17px" height="17px" viewBox="0 0 17 17" version="1.1" xmlns="http://www.w3.org/2000/svg" xmlns:xlink="http://www.w3.org/1999/xlink">
    <title>Shape</title>
    <g id="Page-1" stroke="none" stroke-width="1" fill="none" fill-rule="evenodd">
        <g id="iPhone-11-Pro-Copy" transform="translate(-318.000000, -419.000000)" fill="#898989" fill-rule="nonzero">
            <path d="M332.773991,436 L329.73991,436 C329.313004,436 328.977578,435.664273 328.977578,435.236984 C328.977578,434.809695 329.313004,434.473968 329.73991,434.473968 L332.773991,434.473968 C333.155157,434.473968 333.475336,434.153501 333.475336,433.771993 L333.475336,430.735189 C333.475336,430.307899 333.810762,429.972172 334.237668,429.972172 C334.664574,429.972172 335,430.307899 335,430.735189 L335,433.771993 C334.984753,434.992819 333.993722,436 332.773991,436 L332.773991,436 Z M318.777578,425.027828 C318.350673,425.027828 318.015247,424.692101 318.015247,424.264811 L318.015247,421.228007 C318.015247,420.007181 319.006278,419 320.241256,419 L323.275336,419 C323.702242,419 324.037668,419.335727 324.037668,419.763016 C324.037668,420.190305 323.702242,420.526032 323.275336,420.526032 L320.226009,420.526032 C319.844843,420.526032 319.524664,420.846499 319.524664,421.228007 L319.524664,424.264811 C319.53991,424.692101 319.189238,425.027828 318.777578,425.027828 Z M334.222422,425.027828 C333.795516,425.027828 333.46009,424.692101 333.46009,424.264811 L333.46009,421.228007 C333.46009,420.846499 333.13991,420.526032 332.758744,420.526032 L329.724664,420.526032 C329.297758,420.526032 328.962332,420.190305 328.962332,419.763016 C328.962332,419.335727 329.297758,419 329.724664,419 L332.758744,419 C333.978475,419 334.984753,419.991921 334.984753,421.228007 L334.984753,424.264811 C334.984753,424.692101 334.649327,425.027828 334.222422,425.027828 Z M323.275336,436 L320.226009,436 C319.006278,436 318,435.008079 318,433.771993 L318,430.735189 C318,430.307899 318.335426,429.972172 318.762332,429.972172 C319.189238,429.972172 319.524664,430.307899 319.524664,430.735189 L319.524664,433.771993 C319.524664,434.153501 319.844843,434.473968 320.226009,434.473968 L323.26009,434.473968 C323.686996,434.473968 324.022422,434.809695 324.022422,435.236984 C324.022422,435.664273 323.686996,436 323.275336,436 Z M332.270852,428.324057 L320.729148,428.324057 C320.302242,428.324057 319.966816,427.98833 319.966816,427.561041 C319.966816,427.133752 320.302242,426.798025 320.729148,426.798025 L332.270852,426.798025 C332.697758,426.798025 333.033184,427.133752 333.033184,427.561041 C333.033184,427.98833 332.682511,428.324057 332.270852,428.324057 Z" id="Shape"></path>
        </g>
    </g>
</svg>